<svg width="16" height="20" viewBox="0 0 16 20" fill="none" xmlns="http://www.w3.org/2000/svg">
<path fill-rule="evenodd" clip-rule="evenodd" d="M0 1C0 0.447715 0.447715 0 1 0H15C15.5523 0 16 0.447716 16 1V18.5C15.1716 18.5 14.5 19.1715 14.5 19.9999H13.5C13.5 19.1715 12.8284 18.5 12 18.5C11.1716 18.5 10.5 19.1715 10.5 19.9999H9.5C9.49995 19.1715 8.8284 18.5 8 18.5C7.1716 18.5 6.50005 19.1715 6.5 19.9999H5.5C5.49995 19.1715 4.8284 18.5 4 18.5C3.1716 18.5 2.50005 19.1715 2.5 19.9999H1.5C1.49995 19.1715 0.828399 18.5 0 18.5V1ZM9.41631 11.7884C8.55357 12.3443 7.47034 12.5936 6.32961 12.3827C4.52743 12.0472 3.08953 10.5326 2.85946 8.71135C2.4952 5.82606 4.94922 3.42005 7.85379 3.88016C9.65596 4.16773 11.1034 5.64393 11.4006 7.43646C11.5828 8.5484 11.3239 9.57406 10.7871 10.4272L12.896 12.5265C13.2699 12.9003 13.2699 13.5138 12.896 13.8876C12.5126 14.2711 11.8991 14.2711 11.5252 13.8972L9.41631 11.7884ZM4.70582 8.05877C4.70582 6.75995 5.75994 5.70583 7.05876 5.70583C8.35758 5.70583 9.4117 6.75995 9.4117 8.05877C9.4117 9.3576 8.35758 10.4117 7.05876 10.4117C5.75994 10.4117 4.70582 9.3576 4.70582 8.05877Z" fill="white"/>
</svg>
